<mxfile host="app.diagrams.net" agent="Mozilla/5.0 (Windows NT 10.0; Win64; x64) AppleWebKit/537.36 (KHTML, like Gecko) Chrome/131.0.0.0 Safari/537.36" version="27.0.6">
  <diagram name="Trang-1" id="3uh1urjF2NQzykR87MDC">
    <mxGraphModel grid="1" page="1" gridSize="10" guides="1" tooltips="1" connect="1" arrows="1" fold="1" pageScale="1" pageWidth="827" pageHeight="1169" math="0" shadow="0">
      <root>
        <mxCell id="0" />
        <mxCell id="1" parent="0" />
        <mxCell id="xobubMY5weSLJ62DLS4b-1" style="edgeStyle=orthogonalEdgeStyle;rounded=0;html=1;dashed=1;labelBackgroundColor=none;startFill=0;endArrow=open;endFill=0;endSize=10;fontFamily=Verdana;fontSize=10;strokeColor=#E07A5F;fontColor=default;" edge="1" parent="1">
          <mxGeometry relative="1" as="geometry">
            <mxPoint x="730" y="948" as="sourcePoint" />
            <mxPoint x="730" y="978" as="targetPoint" />
          </mxGeometry>
        </mxCell>
        <mxCell id="xobubMY5weSLJ62DLS4b-2" value="&lt;p style=&quot;margin:0px;margin-top:4px;text-align:center;&quot;&gt;&lt;i&gt;&amp;lt;&amp;lt;boundary&amp;gt;&amp;gt;&lt;/i&gt;&lt;br&gt;&lt;b&gt;DangKyUI&lt;/b&gt;&lt;/p&gt;&lt;hr size=&quot;1&quot;&gt;&lt;p style=&quot;white-space: pre-wrap;&quot; dir=&quot;auto&quot;&gt;+ kich nut &quot;Dang ky&quot; tren menu()&lt;br&gt;+ hien thi ra man hinh form dang ky()&lt;/p&gt;&lt;p style=&quot;white-space: pre-wrap;&quot; dir=&quot;auto&quot;&gt;+kich nut &quot;DangKy&quot;()&lt;br&gt;+ hien thi thong bao dang ky thanh cong()&lt;/p&gt;&lt;p style=&quot;white-space: pre-wrap;&quot; dir=&quot;auto&quot;&gt;&lt;br&gt;&lt;/p&gt;&lt;p style=&quot;white-space: pre-wrap;&quot; dir=&quot;auto&quot;&gt;&lt;br&gt;&lt;/p&gt;&lt;p style=&quot;margin:0px;margin-left:4px;&quot;&gt;&lt;br&gt;&lt;/p&gt;" style="verticalAlign=top;align=left;overflow=fill;fontSize=12;fontFamily=Helvetica;html=1;rounded=0;shadow=0;comic=0;labelBackgroundColor=none;strokeWidth=1;fillColor=#F2CC8F;strokeColor=#E07A5F;fontColor=#393C56;" vertex="1" parent="1">
          <mxGeometry x="240" y="240" width="250" height="140" as="geometry" />
        </mxCell>
        <mxCell id="xobubMY5weSLJ62DLS4b-3" value="&lt;p style=&quot;margin:0px;margin-top:4px;text-align:center;&quot;&gt;&lt;i&gt;&amp;lt;&amp;lt;entity&amp;gt;&lt;/i&gt;&lt;br&gt;&lt;b&gt;Users&lt;/b&gt;&lt;/p&gt;&lt;hr size=&quot;1&quot;&gt;&lt;p style=&quot;white-space: pre-wrap;&quot; dir=&quot;auto&quot;&gt;+ email&lt;br/&gt;+ password&lt;br/&gt;+ userId&lt;br/&gt;+ address&lt;br/&gt;+ gender&lt;br/&gt;+ image&lt;br/&gt;+ phone&lt;br/&gt;+ registerDate&lt;br/&gt;+ status&lt;br/&gt;+ token&lt;br/&gt;+ name&lt;/p&gt;&lt;hr size=&quot;1&quot;&gt;&lt;p style=&quot;white-space: pre-wrap;&quot; dir=&quot;auto&quot;&gt;+ getEmail()&lt;br/&gt;+ setEmail()&lt;br/&gt;+ getPassword()&lt;br/&gt;+ setPassword()&lt;br/&gt;+ getUserId()&lt;br/&gt;+ setUserId()&lt;br/&gt;+ getAddress()&lt;br/&gt;+ setAddress()&lt;br/&gt;+ getGender()&lt;br/&gt;+ setGender()&lt;br/&gt;+ getImage()&lt;br/&gt;+ setImage()&lt;br/&gt;+ getPhone()&lt;br/&gt;+ setPhone()&lt;br/&gt;+ getRegisterDate()&lt;br/&gt;+ setRegisterDate()&lt;br/&gt;+ getStatus()&lt;br/&gt;+ setStatus()&lt;br/&gt;+ getToken()&lt;br/&gt;+ setToken()&lt;br/&gt;+ getName()&lt;br/&gt;+ setName()&lt;br/&gt;+ getUsersByUserId()&lt;br/&gt;+ getUsersByName()&lt;br/&gt;+ updateUsersByUserId()&lt;br/&gt;+ updateUsersByName()&lt;br/&gt;+ createUsers()&lt;/p&gt;" style="verticalAlign=top;align=left;overflow=fill;fontSize=12;fontFamily=Helvetica;html=1;rounded=0;shadow=0;comic=0;labelBackgroundColor=none;strokeWidth=1;fillColor=#F2CC8F;strokeColor=#E07A5F;fontColor=#393C56;" vertex="1" parent="1">
          <mxGeometry x="570" y="358" width="190" height="632" as="geometry" />
        </mxCell>
        <mxCell id="xobubMY5weSLJ62DLS4b-4" value="&lt;p style=&quot;margin:0px;margin-top:4px;text-align:center;&quot;&gt;&lt;i&gt;&amp;lt;&amp;lt;Control&amp;gt;&amp;gt;&lt;/i&gt;&lt;br&gt;&lt;b&gt;DangKyController&lt;/b&gt;&lt;/p&gt;&lt;hr size=&quot;1&quot;&gt;&lt;p style=&quot;margin:0px;margin-left:4px;&quot;&gt;+ luu thong tin dang ky()&lt;/p&gt;&lt;p style=&quot;margin:0px;margin-left:4px;&quot;&gt;&lt;br&gt;&lt;/p&gt;" style="verticalAlign=top;align=left;overflow=fill;fontSize=12;fontFamily=Helvetica;html=1;rounded=0;shadow=0;comic=0;labelBackgroundColor=none;strokeWidth=1;fillColor=#F2CC8F;strokeColor=#E07A5F;fontColor=#393C56;" vertex="1" parent="1">
          <mxGeometry x="570" y="240" width="190" height="70" as="geometry" />
        </mxCell>
        <mxCell id="xobubMY5weSLJ62DLS4b-5" value="&lt;b&gt;KhachHang&lt;/b&gt;" style="shape=umlActor;verticalLabelPosition=bottom;verticalAlign=top;html=1;outlineConnect=0;textShadow=0;labelBorderColor=none;labelBackgroundColor=none;fillColor=#F2CC8F;strokeColor=#E07A5F;fontColor=#393C56;" vertex="1" parent="1">
          <mxGeometry x="90" y="250" width="30" height="60" as="geometry" />
        </mxCell>
        <mxCell id="xobubMY5weSLJ62DLS4b-6" value="" style="endArrow=none;html=1;rounded=0;labelBackgroundColor=none;strokeColor=#E07A5F;fontColor=default;" edge="1" parent="1">
          <mxGeometry relative="1" as="geometry">
            <mxPoint x="120" y="290" as="sourcePoint" />
            <mxPoint x="240" y="290.5" as="targetPoint" />
          </mxGeometry>
        </mxCell>
        <mxCell id="xobubMY5weSLJ62DLS4b-7" value="" style="endArrow=none;html=1;rounded=0;labelBackgroundColor=none;strokeColor=#E07A5F;fontColor=default;" edge="1" parent="1">
          <mxGeometry relative="1" as="geometry">
            <mxPoint x="490" y="290" as="sourcePoint" />
            <mxPoint x="570" y="291" as="targetPoint" />
          </mxGeometry>
        </mxCell>
        <mxCell id="xobubMY5weSLJ62DLS4b-8" value="1" style="text;html=1;align=center;verticalAlign=middle;resizable=0;points=[];autosize=1;strokeColor=none;fillColor=none;labelBackgroundColor=none;fontColor=#393C56;" vertex="1" parent="1">
          <mxGeometry x="480" y="265" width="30" height="30" as="geometry" />
        </mxCell>
        <mxCell id="xobubMY5weSLJ62DLS4b-9" value="1" style="text;html=1;align=center;verticalAlign=middle;resizable=0;points=[];autosize=1;strokeColor=none;fillColor=none;labelBackgroundColor=none;fontColor=#393C56;" vertex="1" parent="1">
          <mxGeometry x="550" y="265" width="30" height="30" as="geometry" />
        </mxCell>
        <mxCell id="xobubMY5weSLJ62DLS4b-10" value="" style="endArrow=none;html=1;rounded=0;exitX=0.5;exitY=1;exitDx=0;exitDy=0;entryX=0.5;entryY=0;entryDx=0;entryDy=0;labelBackgroundColor=none;strokeColor=#E07A5F;fontColor=default;" edge="1" parent="1" source="xobubMY5weSLJ62DLS4b-4" target="xobubMY5weSLJ62DLS4b-3">
          <mxGeometry relative="1" as="geometry">
            <mxPoint x="650" y="342.5" as="sourcePoint" />
            <mxPoint x="730" y="343.5" as="targetPoint" />
          </mxGeometry>
        </mxCell>
        <mxCell id="xobubMY5weSLJ62DLS4b-11" value="1" style="text;html=1;align=center;verticalAlign=middle;resizable=0;points=[];autosize=1;strokeColor=none;fillColor=none;labelBackgroundColor=none;fontColor=#393C56;" vertex="1" parent="1">
          <mxGeometry x="660" y="310" width="30" height="30" as="geometry" />
        </mxCell>
        <mxCell id="xobubMY5weSLJ62DLS4b-12" value="n" style="text;html=1;align=center;verticalAlign=middle;resizable=0;points=[];autosize=1;strokeColor=none;fillColor=none;labelBackgroundColor=none;fontColor=#393C56;" vertex="1" parent="1">
          <mxGeometry x="660" y="330" width="30" height="30" as="geometry" />
        </mxCell>
        <mxCell id="xobubMY5weSLJ62DLS4b-13" value="&lt;b style=&quot;forced-color-adjust: none; color: rgb(0, 0, 0); font-family: Helvetica; font-size: 12px; font-style: normal; font-variant-ligatures: normal; font-variant-caps: normal; letter-spacing: normal; orphans: 2; text-align: center; text-indent: 0px; text-transform: none; widows: 2; word-spacing: 0px; -webkit-text-stroke-width: 0px; white-space: nowrap; background-color: rgb(236, 236, 236); text-decoration-thickness: initial; text-decoration-style: initial; text-decoration-color: initial;&quot;&gt;(From Use Case View)&lt;/b&gt;" style="text;whiteSpace=wrap;html=1;labelBackgroundColor=none;fontColor=#393C56;" vertex="1" parent="1">
          <mxGeometry x="50" y="330" width="160" height="40" as="geometry" />
        </mxCell>
      </root>
    </mxGraphModel>
  </diagram>
</mxfile>
